<svg xmlns="http://www.w3.org/2000/svg" width="48" height="48" fill="none" viewBox="0 0 48 48">
  <rect width="48" height="48" rx="8" fill="#8B1A1A"/>
  <path fill="#fff" d="M14 12h7a2 2 0 0 1 2 2v8a2 2 0 0 1-2 2h-7a2 2 0 0 1-2-2v-8a2 2 0 0 1 2-2Z" opacity=".3"/>
  <path fill="#fff" d="M29.5 10a2.5 2.5 0 0 1 2 1.11l5.16 7.74A2.5 2.5 0 0 1 37 20.5V36a2 2 0 0 1-2 2h-8a2 2 0 0 1-2-2V24.5a2.5 2.5 0 0 1 .5-1.5l5-7.5a2.5 2.5 0 0 1 2-1.5h1Z"/>
  <path fill="#fff" d="M27 27h8v6h-8z" opacity=".5"/>
  <rect width="12" height="3" x="12" y="33" fill="#fff" rx="1.5"/>
  <rect width="8" height="3" x="14" y="27" fill="#fff" rx="1.5" opacity=".6"/>
</svg>
